<svg ed:hSpacing="30" xmlns:xlink="http://www.w3.org/1999/xlink" height="322" width="751" xmlns:ed="https://www.edrawsoft.cn/xml/2017/SVGExtensions/" ed:vSpacing="30" ed:name="页面-1" id="page300000100" xmlns="http://www.w3.org/2000/svg" xmlns:ev="http://www.w3.org/2001/xml-events" viewBox="0 0 751 322"><style type="text/css"><![CDATA[
g[ed\:togtopicid],g[ed\:hyperlink],g[ed\:comment],g[ed\:note] {cursor:pointer;}
g[id] {-moz-user-select: none;-ms-user-select: none;user-select: none;}
svg text::selection,svg tspan::selection{background-color: #4285f4;color: #ffffff;fill: #ffffff;}
.st3 {fill:#000000;font-family:微软雅黑;font-size:10pt}
.st2 {fill:#303030;font-family:微软雅黑;font-size:14pt;font-weight:bold}
.st4 {fill:#ffffff;font-family:微软雅黑;font-size:10pt}
.st1 {fill:#ffffff;font-family:微软雅黑;font-size:18pt;font-weight:bold}
]]></style><defs/><rect fill="#ffffff" height="322" width="751" x="0" y="0"/><path fill="none" ed:type="summary" stroke-linejoin="round" transform="matrix(1,0,0,1,641.8,94.8)" stroke="#53a2f0" ed:idlist="106,112,108,114,110,116" ed:parentid="106,108,110" d="M0.1,0C6,0,5.9,12.7,5.9,12.7L5.9,89.4C5.9,89.4,6.9,100.2,12,100.2C6.9,100.7,5.9,111,5.9,111L5.9,187.7C5.9,187.7,5.8,200.4,0,200.4" id="132"/><path fill="none" stroke-linejoin="round" stroke-linecap="round" transform="matrix(1,0,0,1,317.95,99.25)" stroke="#454545" stroke-width="2" ed:parentid="101" ed:tosuperid="104" d="M56.7,58.4L88.2,58.4L88.2,-52.4C88.2,-55.7,90.8,-58.4,94.2,-58.4L119.7,-58.4" id="105"/><path fill="none" stroke-linejoin="round" stroke-linecap="round" transform="matrix(1,0,0,1,317.95,138.15)" stroke="#454545" stroke-width="2" ed:parentid="101" ed:tosuperid="106" d="M56.7,19.5L88.2,19.5L88.2,-13.5C88.2,-16.8,90.8,-19.5,94.2,-19.5L119.7,-19.5" id="107"/><path fill="none" stroke-linejoin="round" stroke-linecap="round" transform="matrix(1,0,0,1,317.95,177.05)" stroke="#454545" stroke-width="2" ed:parentid="101" ed:tosuperid="108" d="M56.7,-19.4L88.2,-19.4L88.2,13.4C88.2,16.8,90.8,19.4,94.2,19.4L119.7,19.4" id="109"/><path fill="none" stroke-linejoin="round" stroke-linecap="round" transform="matrix(1,0,0,1,317.95,215.95)" stroke="#454545" stroke-width="2" ed:parentid="101" ed:tosuperid="110" d="M56.7,-58.3L88.2,-58.3L88.2,52.3C88.2,55.7,90.8,58.3,94.2,58.3L119.7,58.3" id="111"/><path fill="none" stroke-linejoin="round" stroke-linecap="round" transform="matrix(1,0,0,1,564.5,118.7)" stroke="#454545" ed:parentid="106" ed:tosuperid="112" d="M-13.5,0L0,0C0,-0,2.7,-0,6,-0L13.5,-0" id="113"/><path fill="none" stroke-linejoin="round" stroke-linecap="round" transform="matrix(1,0,0,1,553.3,196.5)" stroke="#454545" ed:parentid="108" ed:tosuperid="114" d="M-13.5,0L0,0C0,-0,2.7,-0,6,-0L13.5,-0" id="115"/><path fill="none" stroke-linejoin="round" stroke-linecap="round" transform="matrix(1,0,0,1,547.7,274.3)" stroke="#454545" ed:parentid="110" ed:tosuperid="116" d="M-13.5,0L0,0C0,-0,2.7,-0,6,-0L13.5,-0" id="117"/><g ed:height="63" transform="matrix(1,0,0,1,22,126.1)" ed:topictype="mainidea" ed:width="352.6" ed:layout="map" id="101"><path fill="#173679" stroke-linejoin="round" stroke="#173679" stroke-width="2" d="M4,0L348.6,0C351.3,0,352.6,1.3,352.6,4L352.6,59C352.6,61.7,351.3,63,348.6,63L4,63C1.3,63,0,61.7,0,59L0,4C0,1.3,1.3,0,4,0z"/><text class="st1"><tspan x="20" y="40.15" textLength="311" style="white-space:pre">CV中的attention[B,C,H,W]</tspan></text></g><g ed:height="41.8" transform="matrix(1,0,0,1,437.6,20)" ed:parentid="101" ed:width="91.8" ed:layout="rightmap" id="104"><path fill="#f9f9f9" stroke-linejoin="round" stroke="#454545" stroke-width="2" d="M4,0L87.8,0C90.5,0,91.8,1.3,91.8,4L91.8,37.8C91.8,40.5,90.5,41.8,87.8,41.8L4,41.8C1.3,41.8,0,40.5,0,37.8L0,4C0,1.3,1.3,0,4,0z"/><text class="st2"><tspan x="18" y="27.55" textLength="54" style="white-space:pre">Batch</tspan></text></g><g ed:height="41.8" transform="matrix(1,0,0,1,437.6,97.8)" ed:parentid="101" ed:width="113.4" ed:layout="rightmap" id="106"><path fill="#f9f9f9" stroke-linejoin="round" stroke="#454545" stroke-width="2" d="M4,0L109.4,0C112.1,0,113.4,1.3,113.4,4L113.4,37.8C113.4,40.5,112.1,41.8,109.4,41.8L4,41.8C1.3,41.8,0,40.5,0,37.8L0,4C0,1.3,1.3,0,4,0z"/><text class="st2"><tspan x="18" y="27.55" textLength="77" style="white-space:pre">Channel</tspan></text></g><g ed:height="41.8" transform="matrix(1,0,0,1,437.6,175.6)" ed:parentid="101" ed:width="102.2" ed:layout="rightmap" id="108"><path fill="#f9f9f9" stroke-linejoin="round" stroke="#454545" stroke-width="2" d="M4,0L98.2,0C100.9,0,102.2,1.3,102.2,4L102.2,37.8C102.2,40.5,100.9,41.8,98.2,41.8L4,41.8C1.3,41.8,0,40.5,0,37.8L0,4C0,1.3,1.3,0,4,0z"/><text class="st2"><tspan x="18" y="27.55" textLength="66" style="white-space:pre">Height</tspan></text></g><g ed:height="41.8" transform="matrix(1,0,0,1,437.6,253.4)" ed:parentid="101" ed:width="96.59999999999999" ed:layout="rightmap" id="110"><path fill="#f9f9f9" stroke-linejoin="round" stroke="#454545" stroke-width="2" d="M4,0L92.6,0C95.3,0,96.6,1.3,96.6,4L96.6,37.8C96.6,40.5,95.3,41.8,92.6,41.8L4,41.8C1.3,41.8,0,40.5,0,37.8L0,4C0,1.3,1.3,0,4,0z"/><text class="st2"><tspan x="18" y="27.55" textLength="59" style="white-space:pre">Width</tspan></text></g><g ed:height="23.9" transform="matrix(1,0,0,1,578,94.8)" ed:parentid="106" ed:width="58.8" ed:layout="rightmap" id="112"><path fill="none" stroke-linejoin="round" stroke="#454545" d="M0,23.9L58.8,23.9"/><text class="st3"><tspan x="8" y="16.1" textLength="39" style="white-space:pre">通道域</tspan></text></g><g ed:height="23.9" transform="matrix(1,0,0,1,566.8,172.6)" ed:parentid="108" ed:width="58.8" ed:layout="rightmap" id="114"><path fill="none" stroke-linejoin="round" stroke="#454545" d="M0,23.9L58.8,23.9"/><text class="st3"><tspan x="8" y="16.1" textLength="39" style="white-space:pre">空间域</tspan></text></g><g ed:height="23.9" transform="matrix(1,0,0,1,561.2,250.4)" ed:parentid="110" ed:width="58.8" ed:layout="rightmap" id="116"><path fill="none" stroke-linejoin="round" stroke="#454545" d="M0,23.9L58.8,23.9"/><text class="st3"><tspan x="8" y="16.1" textLength="39" style="white-space:pre">空间域</tspan></text></g><g ed:height="28.4" transform="matrix(1,0,0,1,662.8,180.8)" ed:parentid="132" ed:width="67.408" ed:layout="rightmap" id="133"><path fill="#53a2f0" stroke-linejoin="round" stroke="#53a2f0" d="M14.2,0L53.2,0C61.1,0,67.4,6.4,67.4,14.2C67.4,22,61.1,28.4,53.2,28.4L14.2,28.4C6.4,28.4,0,22,0,14.2C0,6.4,6.4,0,14.2,0z"/><text class="st4"><tspan x="12" y="18.45" textLength="39" style="white-space:pre">混合域</tspan></text></g></svg>